<?xml version="1.0" encoding="UTF-8" standalone="no"?>
<!-- Created with Inkscape (http://www.inkscape.org/) -->
<svg
   xmlns:svg="http://www.w3.org/2000/svg"
   xmlns="http://www.w3.org/2000/svg"
   version="1.0"
   width="180"
   height="185"
   id="svg2">
  <defs
     id="defs3041" />
  <path
     d="M 164.07,82.2 C 170.8,130.13 140.4,174 96.2,180.3 C 51.9,186.5 10.6,152.7 3.93,104.79 C -2.79,56.87 27.6,12.98 71.843612,6.7 C 116.1,0.5 157.4,34.3 164,82.21 L 164.07,82.2 z"
     id="1"
     style="fill-opacity:0.2" />
  <path
     d="M 176.07,80.2 C 182.8,128 152.4,172.03 108.16,178.26 C 63.9,184.5 22.6,150.7 15.9,102.79 C 9.22,54.9 39.6,10.9 83.8,4.7 C 128,-1.5 169,32.3 176,80.2 L 176.07,80.2 z"
     id="2"
     style="fill:#cc3366" />
  <path
     d="M 160.057,82.470048 C 165.43,120.8 141.1,155.9 105.7,160.9 C 70.35,165.89 37.3,138.9 31.9,100.5 C 26.6,62.2 50.9,27 86.3,22 C 121.7,17.1 154.7,44 160.057,82.5 L 160.057,82.5 L 160.057,82.470048 z"
     id="3"
     style="fill:#ffeaf3" />
  <path
     d="M 93.74225,108.90766 L 96.77825,108.90766 L 101.53025,61.91566 C 102.45425,53.335669 102.45425,53.335659 102.45425,51.61966 C 102.45425,46.207666 99.682245,42.90766 95.06225,42.90766 C 90.310255,42.90766 87.80225,46.207666 87.80225,52.27966 C 87.80225,54.259658 87.802251,54.919667 88.59425,61.78366 L 93.74225,108.90766 M 95.32625,120.25966 C 91.234254,120.25966 87.80225,123.55966 87.80225,127.65166 C 87.80225,131.74366 91.102254,135.17566 95.19425,135.17566 C 99.286246,135.17566 102.58625,131.74366 102.58625,127.65166 C 102.58625,123.69166 99.154246,120.25966 95.32625,120.25966"
     transform="matrix(1.5548627,-0.3022347,0.235443,1.2112494,-71.933984,10.269336)"
     id="flowRoot3056"
     style="font-size:132px;font-style:normal;font-variant:normal;font-weight:bold;font-stretch:normal;line-height:125%;letter-spacing:0px;word-spacing:0px;fill:#cc3366;fill-opacity:1;stroke:none;font-family:Standard Symbols L;-inkscape-font-specification:Standard Symbols L Bold" />
</svg>
