<?xml version="1.0" encoding="UTF-8" standalone="no"?>
<svg
   xmlns:dc="http://purl.org/dc/elements/1.1/"
   xmlns:cc="http://creativecommons.org/ns#"
   xmlns:rdf="http://www.w3.org/1999/02/22-rdf-syntax-ns#"
   xmlns:svg="http://www.w3.org/2000/svg"
   xmlns="http://www.w3.org/2000/svg"
   xmlns:sodipodi="http://sodipodi.sourceforge.net/DTD/sodipodi-0.dtd"
   xmlns:inkscape="http://www.inkscape.org/namespaces/inkscape"
   width="180"
   height="185"
   id="stub"
   version="1.1"
   inkscape:version="0.91 r13725"
   sodipodi:docname="Symbol_stub_class2.svg">
  <metadata
     id="metadata13">
    <rdf:RDF>
      <cc:Work
         rdf:about="">
        <dc:format>image/svg+xml</dc:format>
        <dc:type
           rdf:resource="http://purl.org/dc/dcmitype/StillImage" />
        <dc:title></dc:title>
      </cc:Work>
    </rdf:RDF>
  </metadata>
  <defs
     id="defs11" />
  <sodipodi:namedview
     pagecolor="#ffffff"
     bordercolor="#666666"
     borderopacity="1"
     objecttolerance="10"
     gridtolerance="10"
     guidetolerance="10"
     inkscape:pageopacity="0"
     inkscape:pageshadow="2"
     inkscape:window-width="1920"
     inkscape:window-height="1001"
     id="namedview9"
     showgrid="false"
     inkscape:zoom="1.2756757"
     inkscape:cx="76.28178"
     inkscape:cy="92.5"
     inkscape:window-x="-9"
     inkscape:window-y="-9"
     inkscape:window-maximized="1"
     inkscape:current-layer="stub" />
  <path
     d="M 171.72,99.9 C 171.72,136.39 148.74,168.76 114.72,180.16 C 80.71,191.57 43.35,179.43 22.09,150.06 C 0.83,120.7 0.47,80.74 21.2,50.98 L 88.81,99.9 L 171.72,99.9 z"
     fill="#ccc"
     id="path3"
     style="opacity:1;fill:#000000;fill-opacity:0.19607843" />
  <path
     d="M 166.69,92.54 C 166.69,135.64 135.03,170.83 95.43,171.76 C 55.82,172.69 22.79,139.01 21.09,95.95 C 19.38,52.9 49.63,16.26 89.16,13.48 C 128.69,10.7 163.02,42.81 166.42,85.74"
     fill="none"
     stroke="#f55"
     stroke-width="17"
     stroke-dasharray="17, 17"
     id="path5"
     style="stroke:#cc0000;stroke-opacity:1" />
  <path
     d="M 166.7,92.43 C 166.7,126.47 146.71,156.7 117.03,167.54 C 87.35,178.38 54.62,167.41 35.72,140.28 C 16.81,113.16 15.95,75.93 33.58,47.81 L 93.81,92.43 L 166.7,92.43 z"
     fill="#ffd5d5"
     stroke="#f55"
     stroke-width="17"
     id="path7"
     style="fill:#ffcbcb;fill-opacity:1;stroke:#cc0000;stroke-opacity:1" />
</svg>
